PathFileType	4	(x/y/z)	S02_M20_T09
DataRate	CameraRate	NumFrames	NumMarkers	Units	OrigDataRate	OrigDataStartFrame	OrigNumFrames
240	240	8	51	mm	240	1	453
Frame#	Time	Sternum			R.Acromium			L.Acromium			Top.Head			R.ASIS			L.ASIS			R.PSIS			L.PSIS			R.Great.Tro			L.Great.Tro			R.Iliac.Crest			L.Iliac.Crest			V.Sacral			R.Thigh.Upper.Post			R.Thigh.Lower.Ant			R.Thigh.Lower.Post			R.Thigh.Upper.Ant			R.Knee.Lat			R.Knee.Med			R.Shank.Upper.Post			R.Shank.Lower.Ant			R.Shank.Lower.Post			R.Shank.Upper.Ant			R.Ankle.Lat			R.Ankle.Med			R.Heel.Upper			R.Heel.Med			R.Heel.Lat			R.Toe.Lat			R.Toe.Med			R.Toe.Tip			L.Thigh.Upper.Post			L.Thigh.Lower.Ant			L.Thigh.Lower.Post			L.Thigh.Upper.Ant			L.Knee.Lat			L.Knee.Med			L.Shank.Upper.Post			L.Shank.Lower.Ant			L.Shank.Lower.Post			L.Shank.Upper.Ant			L.Ankle.Lat			L.Ankle.Med			L.Heel.Upper			L.Heel.Med			L.Heel.Lat			L.Toe.Lat			L.Toe.Med			L.Toe.Tip			Cervical.Spine			Back			
		X1	Y1	Z1	X2	Y2	Z2	X3	Y3	Z3	X4	Y4	Z4	X5	Y5	Z5	X6	Y6	Z6	X7	Y7	Z7	X8	Y8	Z8	X9	Y9	Z9	X10	Y10	Z10	X11	Y11	Z11	X12	Y12	Z12	X13	Y13	Z13	X14	Y14	Z14	X15	Y15	Z15	X16	Y16	Z16	X17	Y17	Z17	X18	Y18	Z18	X19	Y19	Z19	X20	Y20	Z20	X21	Y21	Z21	X22	Y22	Z22	X23	Y23	Z23	X24	Y24	Z24	X25	Y25	Z25	X26	Y26	Z26	X27	Y27	Z27	X28	Y28	Z28	X29	Y29	Z29	X30	Y30	Z30	X31	Y31	Z31	X32	Y32	Z32	X33	Y33	Z33	X34	Y34	Z34	X35	Y35	Z35	X36	Y36	Z36	X37	Y37	Z37	X38	Y38	Z38	X39	Y39	Z39	X40	Y40	Z40	X41	Y41	Z41	X42	Y42	Z42	X43	Y43	Z43	X44	Y44	Z44	X45	Y45	Z45	X46	Y46	Z46	X47	Y47	Z47	X48	Y48	Z48	X49	Y49	Z49	X50	Y50	Z50	X51	Y51	Z51	

1	0	NaN	NaN	NaN	-1545.5	1298.3	446.58	-1573.2	1319.6	159.56	-1507.3	1588.5	309.72	NaN	NaN	NaN	NaN	NaN	NaN	-1708.7	944.09	332.44	-1703.3	947.47	258.13	-1605.5	791.02	499.7	-1579.5	801.22	102.06	-1622	945.21	463.39	-1599.7	942.92	123.19	-1736	903.19	284.55	-1662.3	594.42	473	NaN	NaN	NaN	-1709.5	519.7	451.07	-1592.2	579.34	450.74	-1719.4	438.38	431.77	-1740.6	434.38	290.53	NaN	NaN	NaN	-1840.6	178.66	390.98	NaN	NaN	NaN	-1817.8	239.82	411.31	-1930.1	118.11	388.87	-1917.6	128.34	304.66	-1994.3	112.66	337.66	-1988.7	79.494	309.14	-1998.2	82.179	372.08	-1838.2	45.13	407.05	-1811.9	39.082	299.55	-1758.7	61.288	351.8	-1501.5	577.06	124.85	-1397.4	543.24	138.39	-1461.2	498.44	149.78	-1445.9	622.04	113.62	-1378.3	465.15	149.68	-1383.6	459.7	289.25	-1384.7	277.37	150.65	-1284.6	228.27	161.92	-1354.6	210.19	167.01	-1318.3	295.25	144.44	-1272.7	114.06	171.76	-1263.5	117.55	254.48	-1315	58.515	210.35	-1296	42.355	245.96	-1294.8	32.277	185.06	-1140.7	90.788	156.5	-1132.8	119.98	261.2	-1084.5	157.9	214.61	-1640.1	1371.2	316.14	-1725.3	1122.6	317.98
2	0.0041667	NaN	NaN	NaN	-1540.8	1297.9	445.64	-1568	1318.7	158.57	-1502.5	1587.8	308.58	NaN	NaN	NaN	NaN	NaN	NaN	-1703.1	943.41	332.3	-1697.8	946.89	257.98	-1600.6	790.06	499.33	-1573.9	800.88	101.71	-1616.4	944.34	463.2	-1594.1	942.06	122.95	-1730.5	902.64	284.32	-1657.8	593.77	472.59	NaN	NaN	NaN	-1704.9	519.03	450.61	-1587.5	578.5	450.55	-1715.2	437.84	431.39	-1736	433.75	290.12	NaN	NaN	NaN	-1838.5	179.32	391	NaN	NaN	NaN	-1815.1	240.16	411.19	-1928.9	119.37	389.23	-1916.3	129.75	304.93	-1993.3	115.02	337.9	-1987.8	81.72	309.33	-1997.4	84.295	372.28	-1837.9	45.173	407.16	-1811.9	39.086	299.61	-1758.7	61.132	351.77	-1496.1	576.31	124.92	-1392	542.45	138.47	-1455.9	497.7	150.01	-1440.5	621.19	113.49	-1372.9	464.28	149.9	-1378	459.27	289.24	-1381.2	276.4	150.9	-1281.2	226.58	162.19	-1351.9	208.97	167.3	-1315	293.49	145.13	-1270.9	112.46	172.38	-1261.9	115.7	255.31	-1313.9	58.033	210.8	-1295.5	41.388	246.34	-1294.3	31.696	185.39	-1139.4	87.589	157.21	-1131.2	116.36	262.08	-1082.4	153.65	215.53	-1635.2	1370.4	314.97	-1719.9	1121.6	317.33
3	0.0083333	NaN	NaN	NaN	-1535.8	1297.4	444.66	-1562.5	1317.7	157.53	-1497.5	1587.1	307.39	NaN	NaN	NaN	NaN	NaN	NaN	-1697.3	942.72	332.15	-1692	946.3	257.82	-1595.4	789.06	498.95	-1568.1	800.52	101.36	-1610.6	943.46	463	-1588.2	941.2	122.67	-1724.7	902.09	284.09	-1653.1	593.1	472.15	NaN	NaN	NaN	-1700	518.32	450.13	-1582.5	577.63	450.35	-1710.7	437.28	431.01	-1731.2	433.08	289.7	NaN	NaN	NaN	-1836.3	180.03	391.07	NaN	NaN	NaN	-1812.2	240.54	411.09	-1927.6	120.72	389.6	-1914.9	131.25	305.22	-1992.3	117.51	338.16	-1986.8	84.091	309.54	-1996.5	86.548	372.49	-1837.6	45.221	407.28	-1811.9	39.096	299.67	-1758.6	60.976	351.73	-1490.5	575.54	125	-1386.5	541.61	138.55	-1450.3	496.93	150.25	-1434.8	620.31	113.36	-1367.4	463.38	150.11	-1372.2	458.81	289.22	-1377.6	275.41	151.18	-1277.7	224.84	162.52	-1349	207.73	167.62	-1311.5	291.7	145.84	-1269	110.84	173.02	-1260.3	113.83	256.17	-1312.8	57.615	211.27	-1295	40.456	246.73	-1293.7	31.176	185.74	-1138.1	84.29	157.94	-1129.6	112.59	262.96	-1080.1	149.21	216.48	-1630	1369.6	313.74	-1714.3	1120.6	316.64
4	0.0125	NaN	NaN	NaN	-1530.6	1296.9	443.64	-1556.9	1316.7	156.44	-1492.3	1586.4	306.16	NaN	NaN	NaN	NaN	NaN	NaN	-1691.2	942.02	331.98	-1686	945.71	257.64	-1589.9	788.03	498.55	-1562.1	800.16	100.99	-1604.5	942.57	462.8	-1582.2	940.34	122.37	-1718.7	901.54	283.84	-1648.2	592.43	471.71	NaN	NaN	NaN	-1694.9	517.6	449.63	-1577.3	576.74	450.13	-1706.1	436.69	430.62	-1726.2	432.37	289.27	NaN	NaN	NaN	-1834.1	180.76	391.18	NaN	NaN	NaN	-1809.2	240.96	411	-1926.2	122.16	389.98	-1913.4	132.83	305.54	-1991.1	120.13	338.44	-1985.8	86.604	309.75	-1995.5	88.936	372.71	-1837.3	45.273	407.4	-1811.9	39.115	299.74	-1758.5	60.821	351.69	-1484.7	574.77	125.08	-1380.8	540.73	138.63	-1444.7	496.14	150.49	-1429	619.4	113.23	-1361.8	462.44	150.33	-1366.3	458.29	289.21	-1373.8	274.41	151.48	-1274.1	223.04	162.91	-1346.1	206.48	167.97	-1307.8	289.91	146.56	-1267.1	109.22	173.68	-1258.5	111.94	257.05	-1311.5	57.28	211.75	-1294.4	39.581	247.13	-1293.1	30.738	186.08	-1136.7	80.924	158.67	-1127.9	108.71	263.85	-1077.8	144.61	217.44	-1624.7	1368.8	312.46	-1708.4	1119.6	315.92
5	0.016667	NaN	NaN	NaN	-1525.2	1296.4	442.59	-1551	1315.7	155.31	-1486.9	1585.7	304.88	NaN	NaN	NaN	NaN	NaN	NaN	-1684.9	941.34	331.8	-1679.8	945.13	257.44	-1584.3	786.99	498.14	-1555.9	799.8	100.63	-1598.2	941.67	462.59	-1575.9	939.5	122.04	-1712.5	901	283.58	-1643.2	591.77	471.26	NaN	NaN	NaN	-1689.5	516.85	449.13	-1571.9	575.85	449.91	-1701.2	436.08	430.24	-1720.9	431.62	288.85	NaN	NaN	NaN	-1831.8	181.53	391.35	NaN	NaN	NaN	-1806.1	241.41	410.94	-1924.8	123.68	390.39	-1911.9	134.48	305.89	-1989.8	122.87	338.74	-1984.7	89.26	309.97	-1994.4	91.46	372.94	-1836.9	45.331	407.54	-1811.9	39.145	299.81	-1758.5	60.669	351.64	-1478.9	574	125.15	-1375	539.81	138.71	-1438.9	495.35	150.72	-1423.1	618.47	113.11	-1356.1	461.47	150.53	-1360.4	457.74	289.2	-1370	273.41	151.79	-1270.5	221.22	163.37	-1343	205.24	168.34	-1304	288.13	147.3	-1265	107.64	174.35	-1256.6	110.07	257.93	-1310.2	57.042	212.24	-1293.8	38.785	247.52	-1292.5	30.398	186.43	-1135.2	77.521	159.38	-1126.1	104.75	264.72	-1075.4	139.89	218.41	-1619.3	1367.9	311.13	-1702.4	1118.6	315.16
6	0.020833	NaN	NaN	NaN	-1519.7	1295.9	441.53	-1545.1	1314.6	154.15	-1481.5	1585	303.58	NaN	NaN	NaN	NaN	NaN	NaN	-1678.4	940.67	331.6	-1673.5	944.58	257.23	-1578.6	785.92	497.72	-1549.5	799.44	100.26	-1591.7	940.79	462.37	-1569.5	938.69	121.67	-1706.2	900.47	283.31	-1638	591.11	470.81	NaN	NaN	NaN	-1684	516.07	448.62	-1566.3	574.95	449.67	-1696.1	435.44	429.86	-1715.5	430.83	288.44	NaN	NaN	NaN	-1829.4	182.32	391.58	NaN	NaN	NaN	-1802.8	241.89	410.91	-1923.3	125.29	390.81	-1910.2	136.2	306.28	-1988.4	125.73	339.06	-1983.5	92.059	310.2	-1993.3	94.12	373.18	-1836.5	45.399	407.68	-1811.8	39.19	299.89	-1758.4	60.518	351.58	-1472.9	573.25	125.22	-1369.1	538.87	138.78	-1433.2	494.56	150.96	-1417.1	617.53	112.98	-1350.4	460.49	150.73	-1354.5	457.15	289.19	-1366	272.44	152.13	-1266.9	219.39	163.89	-1339.8	204.03	168.73	-1300.1	286.39	148.04	-1262.9	106.11	175.03	-1254.7	108.23	258.8	-1308.9	56.913	212.73	-1293.1	38.08	247.91	-1291.9	30.169	186.77	-1133.7	74.113	160.08	-1124.2	100.73	265.58	-1072.9	135.07	219.38	-1613.7	1367.1	309.77	-1696.2	1117.5	314.38
7	0.025	NaN	NaN	NaN	-1514.1	1295.4	440.44	-1539	1313.6	152.95	-1475.9	1584.4	302.25	NaN	NaN	NaN	NaN	NaN	NaN	-1671.9	940.02	331.39	-1667.1	944.05	257	-1572.7	784.85	497.3	-1542.9	799.1	99.886	-1585.1	939.92	462.15	-1563	937.93	121.26	-1699.7	899.96	283.02	-1632.8	590.46	470.36	NaN	NaN	NaN	-1678.3	515.29	448.11	-1560.6	574.06	449.43	-1690.9	434.79	429.5	-1709.8	429.99	288.05	NaN	NaN	NaN	-1827	183.15	391.88	NaN	NaN	NaN	-1799.4	242.42	410.91	-1921.7	126.98	391.24	-1908.4	137.99	306.7	-1986.8	128.7	339.4	-1982.1	95.003	310.44	-1992	96.918	373.42	-1836.1	45.48	407.83	-1811.8	39.253	299.97	-1758.3	60.367	351.52	-1466.9	572.52	125.28	-1363.3	537.9	138.85	-1427.4	493.79	151.18	-1411	616.6	112.86	-1344.6	459.51	150.92	-1348.6	456.54	289.19	-1362	271.5	152.49	-1263.2	217.56	164.46	-1336.5	202.86	169.14	-1296.2	284.71	148.77	-1260.7	104.65	175.71	-1252.6	106.45	259.66	-1307.5	56.895	213.23	-1292.5	37.478	248.29	-1291.2	30.054	187.1	-1132.2	70.728	160.76	-1122.3	96.689	266.41	-1070.3	130.2	220.32	-1608	1366.3	308.37	-1689.9	1116.5	313.57
8	0.029167	NaN	NaN	NaN	-1508.4	1295	439.35	-1532.8	1312.6	151.73	-1470.3	1583.8	300.91	NaN	NaN	NaN	NaN	NaN	NaN	-1665.2	939.41	331.17	-1660.6	943.55	256.75	-1566.7	783.78	496.87	-1536.3	798.77	99.518	-1578.3	939.08	461.93	-1556.3	937.22	120.82	-1693.1	899.47	282.73	-1627.5	589.84	469.91	NaN	NaN	NaN	-1672.5	514.49	447.6	-1554.7	573.18	449.19	-1685.4	434.13	429.16	-1703.9	429.12	287.68	NaN	NaN	NaN	-1824.6	184.01	392.25	NaN	NaN	NaN	-1795.9	242.98	410.95	-1919.9	128.77	391.69	-1906.5	139.85	307.15	-1985.1	131.8	339.77	-1980.7	98.093	310.69	-1990.5	99.857	373.68	-1835.7	45.579	407.99	-1811.8	39.339	300.05	-1758.2	60.214	351.45	-1460.9	571.84	125.34	-1357.3	536.94	138.9	-1421.6	493.05	151.39	-1404.9	615.68	112.74	-1338.9	458.55	151.08	-1342.8	455.9	289.18	-1357.9	270.63	152.85	-1259.6	215.77	165.08	-1333.1	201.76	169.56	-1292.1	283.11	149.49	-1258.5	103.27	176.37	-1250.6	104.74	260.51	-1306	56.987	213.71	-1291.8	36.983	248.66	-1290.5	30.055	187.42	-1130.8	67.394	161.4	-1120.4	92.659	267.19	-1067.8	125.3	221.24	-1602.2	1365.5	306.95	-1683.5	1115.5	312.73
